<svg xmlns="http://www.w3.org/2000/svg">
  <symbol id="logo" viewBox="0 0 100 60">
    <path d="M18 19c5.6-7.5 17.6-8 24.3-1.4 4.6 4.5 3.8 10.7-.6 15.2-5.6 5.8-16.1 7.2-22.6 2.1-5.1-4-5-10.7-1.1-15.9Z" fill="none" stroke="currentColor" stroke-width="1.4"/>
    <path d="M39.5 18.1c-5.2 1.7-9.1 5.1-11.7 10.2" fill="none" stroke="currentColor" stroke-linecap="round" stroke-width="1.4"/>
    <text x="51" y="24" fill="currentColor" font-family="Inter, sans-serif" font-size="8" font-weight="600" letter-spacing=".7">COFFEE</text>
    <text x="51" y="34" fill="currentColor" font-family="Inter, sans-serif" font-size="8" font-weight="600" letter-spacing=".7">HOUSE</text>
    <text x="50" y="48" fill="currentColor" font-family="Inter, sans-serif" font-size="6" letter-spacing="2">RESOURCE</text>
  </symbol>
  <symbol id="cup" viewBox="0 0 24 24">
    <path d="M5 8h12v5.5A5.5 5.5 0 0 1 11.5 19h-1A5.5 5.5 0 0 1 5 13.5V8Z" fill="none" stroke="currentColor" stroke-linecap="round" stroke-linejoin="round" stroke-width="1.5"/>
    <path d="M17 10h1.5a2.5 2.5 0 0 1 0 5H17M8 5c0-1 1-1 1-2M12 5c0-1 1-1 1-2" fill="none" stroke="currentColor" stroke-linecap="round" stroke-width="1.5"/>
  </symbol>
  <symbol id="coffee" viewBox="0 0 24 24">
    <path d="M18.2 3.5c3.4 2.1 4 7.5 1.4 12.1-2.6 4.7-7.5 6.7-10.9 4.7-3.4-2.1-4-7.5-1.4-12.1 2.6-4.6 7.5-6.7 10.9-4.7Z" fill="currentColor"/>
    <path d="M18.4 4.3c-.9 4.1-2.5 5.3-4.2 6.8-1.8 1.5-3.6 3.1-4.3 8.3" fill="none" stroke="var(--color-bg-page, #e1d4c9)" stroke-linecap="round" stroke-width="1.5"/>
  </symbol>
  <symbol id="tea" viewBox="0 0 24 24">
    <path d="M19.5 4.5c-6.9.2-11.2 3.1-12.8 8.8-.8 2.9 1.7 5.7 4.7 5.2 5.8-.9 8.3-6.1 8.1-14Z" fill="none" stroke="currentColor" stroke-linecap="round" stroke-linejoin="round" stroke-width="1.5"/>
    <path d="M5 20c2.7-4.4 6-7.8 10.2-10.4" fill="none" stroke="currentColor" stroke-linecap="round" stroke-width="1.5"/>
  </symbol>
  <symbol id="dessert" viewBox="0 0 24 24">
    <path d="m5 10 2-4h10l2 4v8.5A1.5 1.5 0 0 1 17.5 20h-11A1.5 1.5 0 0 1 5 18.5V10Z" fill="none" stroke="currentColor" stroke-linejoin="round" stroke-width="1.5"/>
    <path d="M5 10c1.8 0 1.8 2 3.5 2s1.8-2 3.5-2 1.8 2 3.5 2 1.8-2 3.5-2M9 6c0-1.5 1.2-2.5 3-2.5s3 1 3 2.5" fill="none" stroke="currentColor" stroke-linecap="round" stroke-width="1.5"/>
  </symbol>
  <symbol id="arrow-left" viewBox="0 0 24 24">
    <path d="m15 18-6-6 6-6M9 12h12" fill="none" stroke="currentColor" stroke-linecap="round" stroke-linejoin="round" stroke-width="1.5"/>
  </symbol>
  <symbol id="arrow-right" viewBox="0 0 24 24">
    <path d="m9 6 6 6-6 6M3 12h12" fill="none" stroke="currentColor" stroke-linecap="round" stroke-linejoin="round" stroke-width="1.5"/>
  </symbol>
  <symbol id="refresh" viewBox="0 0 24 24">
    <path d="M20 11a8 8 0 1 0-2.3 6.7M20 5v6h-6" fill="none" stroke="currentColor" stroke-linecap="round" stroke-linejoin="round" stroke-width="1.5"/>
  </symbol>
  <symbol id="info" viewBox="0 0 24 24">
    <circle cx="12" cy="12" r="9" fill="none" stroke="currentColor" stroke-width="1.5"/>
    <path d="M12 11v6M12 7.5v.1" fill="none" stroke="currentColor" stroke-linecap="round" stroke-width="1.8"/>
  </symbol>
  <symbol id="twitter" viewBox="0 0 24 24">
    <path d="M21 7.1c-.7.3-1.4.5-2.2.6a3.8 3.8 0 0 0-6.5 3.5A10.8 10.8 0 0 1 4.5 7.3a3.8 3.8 0 0 0 1.2 5.1c-.6 0-1.2-.2-1.7-.5 0 1.9 1.3 3.4 3 3.7-.6.2-1.2.2-1.7.1.5 1.5 1.9 2.6 3.5 2.6A7.7 7.7 0 0 1 4 19.9c-.3 0-.6 0-.9-.1a10.8 10.8 0 0 0 16.6-9.1v-.5A7.8 7.8 0 0 0 21 7.1Z" fill="none" stroke="currentColor" stroke-linecap="round" stroke-linejoin="round" stroke-width="1.5"/>
  </symbol>
  <symbol id="instagram" viewBox="0 0 24 24">
    <rect x="3" y="3" width="18" height="18" rx="5" fill="none" stroke="currentColor" stroke-width="1.5"/>
    <circle cx="12" cy="12" r="4" fill="none" stroke="currentColor" stroke-width="1.5"/>
    <circle cx="17.5" cy="6.5" r="1" fill="currentColor"/>
  </symbol>
  <symbol id="facebook" viewBox="0 0 24 24">
    <path d="M14 21v-8h3l.5-3H14V8.2c0-.9.3-1.7 1.8-1.7H18V3.8c-.7-.1-1.5-.2-2.4-.2-2.5 0-4.2 1.5-4.2 4.4v2H8.5v3h2.9v8H14Z" fill="currentColor"/>
  </symbol>
  <symbol id="pin" viewBox="0 0 24 24">
    <path d="M20 10c0 5-8 11-8 11S4 15 4 10a8 8 0 1 1 16 0Z" fill="none" stroke="currentColor" stroke-linejoin="round" stroke-width="1.5"/>
    <circle cx="12" cy="10" r="2.5" fill="none" stroke="currentColor" stroke-width="1.5"/>
  </symbol>
  <symbol id="phone" viewBox="0 0 24 24">
    <path d="M8.1 3.5 5 5c-.6.3-.9 1-.7 1.7 2 6.5 6.5 11 13 13 .7.2 1.4-.1 1.7-.7l1.5-3.1-4.2-2-1.2 2c-3.1-1.3-5.7-3.9-7-7l2-1.2-2-4.2Z" fill="none" stroke="currentColor" stroke-linecap="round" stroke-linejoin="round" stroke-width="1.5"/>
  </symbol>
  <symbol id="clock" viewBox="0 0 24 24">
    <circle cx="12" cy="12" r="9" fill="none" stroke="currentColor" stroke-width="1.5"/>
    <path d="M12 7v5l3 2" fill="none" stroke="currentColor" stroke-linecap="round" stroke-linejoin="round" stroke-width="1.5"/>
  </symbol>
  <symbol id="apple" viewBox="0 0 24 24">
    <path d="M16.7 12.7c0-2.2 1.8-3.3 1.9-3.4a4 4 0 0 0-3.2-1.7c-1.4-.1-2.6.8-3.3.8-.7 0-1.7-.8-2.8-.8-1.5 0-2.9.9-3.7 2.2-1.6 2.8-.4 6.9 1.1 9.1.8 1.1 1.7 2.3 2.8 2.2 1.1 0 1.6-.7 3.1-.7 1.4 0 1.9.7 3 .7 1.3 0 2.1-1.1 2.8-2.2.9-1.3 1.2-2.6 1.2-2.7-.1 0-2.9-1.1-2.9-3.5ZM14.5 6.2c.6-.8 1.1-1.9 1-3-.9 0-2 .6-2.7 1.3-.6.7-1.1 1.8-1 2.9 1 .1 2-.5 2.7-1.2Z" fill="currentColor"/>
  </symbol>
  <symbol id="google-play" viewBox="0 0 24 24">
    <path d="m4 3 10.4 9L4 21V3Zm11.8 10.2 2.6 2.2-3.2 1.8-3-2.6 3.6-1.4Zm0-2.4-3.6-1.4 3-2.6 3.2 1.8-2.6 2.2Z" fill="currentColor"/>
  </symbol>
</svg>
